<?xml version="1.0" encoding="UTF-8" standalone="no"?>
<svg
   xmlns:dc="http://purl.org/dc/elements/1.1/"
   xmlns:cc="http://creativecommons.org/ns#"
   xmlns:rdf="http://www.w3.org/1999/02/22-rdf-syntax-ns#"
   xmlns:svg="http://www.w3.org/2000/svg"
   xmlns="http://www.w3.org/2000/svg"
   xmlns:sodipodi="http://sodipodi.sourceforge.net/DTD/sodipodi-0.dtd"
   xmlns:inkscape="http://www.inkscape.org/namespaces/inkscape"
   id="Logo"
   version="1.1"
   viewBox="0 0 200 200"
   sodipodi:docname="logo-v.svg"
   width="200"
   height="200"
   inkscape:version="0.92.4 (5da689c313, 2019-01-14)"
   inkscape:export-filename="D:\denis\devel\torg-presence\src\assets\icons\icon-512x512.png"
   inkscape:export-xdpi="245.75999"
   inkscape:export-ydpi="245.75999">
  <metadata
     id="metadata15">
    <rdf:RDF>
      <cc:Work
         rdf:about="">
        <dc:format>image/svg+xml</dc:format>
        <dc:type
           rdf:resource="http://purl.org/dc/dcmitype/StillImage" />
        <dc:title></dc:title>
      </cc:Work>
    </rdf:RDF>
  </metadata>
  <defs
     id="defs13" />
  <sodipodi:namedview
     pagecolor="#ffffff"
     bordercolor="#666666"
     borderopacity="1"
     objecttolerance="10"
     gridtolerance="10"
     guidetolerance="10"
     inkscape:pageopacity="0"
     inkscape:pageshadow="2"
     inkscape:window-width="1352"
     inkscape:window-height="928"
     id="namedview11"
     showgrid="false"
     inkscape:zoom="2.4757569"
     inkscape:cx="164.03352"
     inkscape:cy="105.57427"
     inkscape:window-x="685"
     inkscape:window-y="169"
     inkscape:window-maximized="0"
     inkscape:current-layer="Logo">
    <inkscape:grid
       type="xygrid"
       id="grid4525" />
  </sodipodi:namedview>
  <rect
     style="fill:#e30613;fill-opacity:1;stroke:none;stroke-width:1.95963097;stroke-miterlimit:4;stroke-dasharray:none;stroke-opacity:1"
     id="rect4554"
     width="200"
     height="200"
     x="0"
     y="-2.220446e-14" />
  <g
     id="g4552"
     transform="translate(-0.04349922,10.431695)">
    <g
       transform="translate(0,30)"
       id="Wortmarke">
      <path
         inkscape:connector-curvature="0"
         style="fill:#ffed00;fill-rule:evenodd"
         d="m 37,22.27 v 5.4 c 0,0.89 0.13,3.14 -1.28,3.74 -1.81,0.76 -3.13,0.51 -5,0.54 H 24.54 V 18 h 6.24 c 1.83,0 3.14,-0.22 4.95,0.55 1.41,0.58 1.27,2.83 1.27,3.72 z m 0.7,17.65 c 3.78,0 7.91,0.32 10.62,-1 2.71,-1.32 3.21,-4.78 3.21,-6.58 V 17.67 c 0,-1.81 -0.48,-5.27 -3.21,-6.58 -2.73,-1.31 -6.83,-1 -10.62,-1 H 10 v 29.84 h 27.71"
         id="D" />
      <path
         style="fill:#ffed00"
         inkscape:connector-curvature="0"
         d="M 59.76,39.93 V 10.05 H 74.31 V 32 h 19 v 8 H 59.76"
         id="L" />
      <path
         inkscape:connector-curvature="0"
         style="fill:#ffed00;fill-rule:evenodd"
         d="m 114.39,15.33 h 6.29 c 2,0 3.52,-0.16 4.88,0.47 a 2.48,2.48 0 0 1 1.44,2.79 2.58,2.58 0 0 1 -1.43,2.82 c -1.45,0.63 -2.5,0.46 -4.88,0.46 H 114.4 V 15.33 Z M 99.84,39.93 V 10.05 h 27.49 c 3.17,0 6.76,-0.26 9.34,0.94 2.92,1.37 4.51,2.94 4.51,6.22 v 0.8 c 0,2.56 -1.07,3.89 -3.21,5.26 -2.14,1.37 -4.71,1.57 -9.69,1.57 h 6 a 11,11 0 0 1 4.87,1 4.11,4.11 0 0 1 2.07,3.32 v 10.77 h -14.6 v -9.46 c 0,-0.91 0.07,-2.39 -1.22,-2.8 -1.29,-0.41 -2.29,-0.31 -4.54,-0.36 h -6.47 V 39.93 H 99.84"
         id="R" />
      <path
         style="fill:#ffed00"
         inkscape:connector-curvature="0"
         d="m 169.14,21.87 h 20.77 v 11.42 a 6.33,6.33 0 0 1 -4.49,6 c -3,0.84 -6,0.65 -9.34,0.65 H 162.2 c -4.6,0.06 -8.52,0.4 -10.9,-1.25 A 6.51,6.51 0 0 1 148.37,33.3 V 16.69 c 0,-2.31 1.27,-4 3,-5.37 2.06,-1.7 6.34,-1.27 10.87,-1.27 h 13.88 c 5.47,0 9.08,0 11.1,1.45 3.04,2.2 2.78,6.5 2.78,6.5 h -13.95 c -0.44,-2.16 -1.67,-2.72 -4.49,-2.72 h -4.46 c -3.06,0 -4.2,1 -4.18,2.82 v 13.26 c 0,1.59 0.23,2.29 1.47,2.89 1,0.49 2.63,0.41 4.53,0.41 h 3.53 c 3.34,0 3.63,-1.82 3.63,-3.81 v -3.54 h -6.94 v -5.44"
         id="G" />
    </g>
    <rect
       transform="rotate(90)"
       style="fill:#ffed00;stroke-width:2.12132025"
       height="180"
       width="1.8200001"
       y="-190"
       x="78"
       id="Trenner" />
    <g
       transform="matrix(0.72498792,0,0,0.72498792,26.297728,23.311068)"
       id="g4541">
      <path
         inkscape:connector-curvature="0"
         style="fill:#ffed00"
         d="m 18.8,88.4 h 19.36 v 4.72 H 25 V 100 h 12.32 v 4.72 H 25 v 7.8 h 13.6 v 4.8 H 18.8 Z m 35.96,28.64 q -1.44,0.4 -2.66,0.52 -1.22,0.12 -1.94,0.12 -2.24,0 -3.44,-0.62 -1.2,-0.62 -1.76,-1.48 -0.56,-0.86 -0.66,-1.78 -0.1,-0.92 -0.1,-1.56 v -11.08 h -3.88 v -3.92 h 3.88 v -3.96 l 5.88,-2.16 v 6.12 h 4.8 v 3.92 h -4.8 v 9.12 q 0,0.68 0.06,1.24 0.06,0.56 0.3,0.96 0.24,0.4 0.78,0.6 0.54,0.2 1.54,0.2 0.68,0 1.06,-0.02 0.38,-0.02 0.94,-0.1 z m 14.56,0 q -1.44,0.4 -2.66,0.52 -1.22,0.12 -1.94,0.12 -2.24,0 -3.44,-0.62 -1.2,-0.62 -1.76,-1.48 -0.56,-0.86 -0.66,-1.78 -0.1,-0.92 -0.1,-1.56 v -11.08 h -3.88 v -3.92 h 3.88 v -3.96 l 5.88,-2.16 v 6.12 h 4.8 v 3.92 h -4.8 v 9.12 q 0,0.68 0.06,1.24 0.06,0.56 0.3,0.96 0.24,0.4 0.78,0.6 0.54,0.2 1.54,0.2 0.68,0 1.06,-0.02 0.38,-0.02 0.94,-0.1 z M 73,88.4 h 5.92 v 28.92 H 73 Z m 11.12,8.68 h 5.92 v 20.24 h -5.92 z m -0.2,-8.64 h 6.32 v 5.16 h -6.32 z m 11.4,12.28 v -0.4 q 0,-0.4 -0.02,-0.94 -0.02,-0.54 -0.04,-1.18 -0.02,-0.64 -0.06,-1.16 h 5.68 l 0.16,3.04 q 0.2,-0.36 0.64,-0.94 0.44,-0.58 1.2,-1.16 0.76,-0.58 1.92,-1 1.16,-0.42 2.8,-0.42 1.48,0 2.56,0.4 1.08,0.4 1.82,0.98 0.74,0.58 1.16,1.24 0.42,0.66 0.62,1.18 0.16,0.48 0.28,0.94 0.12,0.46 0.18,1.12 0.06,0.66 0.08,1.62 0.02,0.96 0.02,2.36 v 10.92 h -6.04 v -12.56 q 0,-0.64 -0.04,-1.18 -0.04,-0.54 -0.28,-1.02 -0.32,-0.68 -1.02,-1.2 -0.7,-0.52 -1.86,-0.52 -0.96,0 -1.78,0.42 -0.82,0.42 -1.3,1.14 -0.28,0.4 -0.5,1.16 -0.22,0.76 -0.22,1.92 v 11.84 h -5.96 z m 29.4,6.28 q 0,0.36 0.06,1.34 0.06,0.98 0.44,1.98 0.38,1 1.18,1.78 0.8,0.78 2.28,0.78 1.56,0 2.4,-0.78 0.84,-0.78 1.24,-1.78 0.4,-1 0.46,-1.94 0.06,-0.94 0.06,-1.26 0,-0.84 -0.12,-1.92 -0.12,-1.08 -0.54,-2.02 -0.42,-0.94 -1.22,-1.58 -0.8,-0.64 -2.16,-0.64 -1.68,0 -2.88,1.4 -1.2,1.4 -1.2,4.64 z m 14.12,-9.8 q -0.12,1.2 -0.2,2.34 -0.08,1.14 -0.08,2.66 v 14.92 q 0,2.8 -1.02,4.42 -1.02,1.62 -2.56,2.46 -1.54,0.84 -3.3,1.06 -1.76,0.22 -3.2,0.22 -1.08,0 -2.56,-0.16 -1.48,-0.16 -2.84,-0.8 -1.36,-0.64 -2.36,-1.94 -1,-1.3 -1.12,-3.58 h 5.68 q 0.04,0.24 0.14,0.7 0.1,0.46 0.46,0.92 0.36,0.46 1.04,0.82 0.68,0.36 1.88,0.36 1.32,0 2.34,-0.64 1.02,-0.64 1.34,-2 0.08,-0.36 0.14,-0.74 0.06,-0.38 0.08,-0.88 0.02,-0.5 0.04,-1.26 0.02,-0.76 0.02,-1.92 -0.72,0.92 -1.44,1.48 -0.72,0.56 -1.44,0.84 -0.72,0.28 -1.38,0.36 -0.66,0.08 -1.18,0.08 -2.16,0 -3.78,-0.86 -1.62,-0.86 -2.66,-2.26 -1.04,-1.4 -1.56,-3.18 -0.52,-1.78 -0.52,-3.62 0,-1.92 0.54,-3.72 0.54,-1.8 1.62,-3.2 1.08,-1.4 2.7,-2.24 1.62,-0.84 3.78,-0.84 1.36,0 2.34,0.32 0.98,0.32 1.64,0.78 0.66,0.46 1.04,0.96 0.38,0.5 0.62,0.82 l 0.2,-2.68 z m 16.76,7.8 q 0,-0.36 -0.06,-1.1 -0.06,-0.74 -0.4,-1.5 -0.34,-0.76 -1.06,-1.34 -0.72,-0.58 -2,-0.58 -0.96,0 -1.66,0.38 -0.7,0.38 -1.16,1 -0.46,0.62 -0.7,1.44 -0.24,0.82 -0.28,1.7 z m -7.52,3.72 q 0,0.48 0.06,1.4 0.06,0.92 0.46,1.8 0.4,0.88 1.22,1.54 0.82,0.66 2.38,0.66 1.12,0 2.1,-0.56 0.98,-0.56 1.42,-2.24 h 5.4 q -0.04,0.36 -0.1,0.86 -0.06,0.5 -0.26,1.06 -0.2,0.56 -0.58,1.2 -0.38,0.64 -0.98,1.28 -1.12,1.16 -2.98,1.76 -1.86,0.6 -4.1,0.6 -0.64,0 -1.54,-0.08 -0.9,-0.08 -1.88,-0.36 -0.98,-0.28 -1.94,-0.76 -0.96,-0.48 -1.76,-1.32 -1.4,-1.44 -2,-3.44 -0.6,-2 -0.6,-4.44 0,-1.24 0.18,-2.56 0.18,-1.32 0.64,-2.58 0.46,-1.26 1.28,-2.4 0.82,-1.14 2.1,-2.02 1.16,-0.8 2.58,-1.24 1.42,-0.44 3.1,-0.44 1.08,0 2.24,0.24 1.16,0.24 2.24,0.8 1.08,0.56 2.04,1.5 0.96,0.94 1.64,2.34 0.52,1.04 0.78,2.08 0.26,1.04 0.36,2.02 0.1,0.98 0.1,1.82 0,0.84 -0.04,1.48 z m 17.56,-8 v -0.4 q 0,-0.4 -0.02,-0.94 -0.02,-0.54 -0.04,-1.18 -0.02,-0.64 -0.06,-1.16 h 5.68 l 0.16,3.04 q 0.2,-0.36 0.64,-0.94 0.44,-0.58 1.2,-1.16 0.76,-0.58 1.92,-1 1.16,-0.42 2.8,-0.42 1.48,0 2.56,0.4 1.08,0.4 1.82,0.98 0.74,0.58 1.16,1.24 0.42,0.66 0.62,1.18 0.16,0.48 0.28,0.94 0.12,0.46 0.18,1.12 0.06,0.66 0.08,1.62 0.02,0.96 0.02,2.36 v 10.92 h -6.04 v -12.56 q 0,-0.64 -0.04,-1.18 -0.04,-0.54 -0.28,-1.02 -0.32,-0.68 -1.02,-1.2 -0.7,-0.52 -1.86,-0.52 -0.96,0 -1.78,0.42 -0.82,0.42 -1.3,1.14 -0.28,0.4 -0.5,1.16 -0.22,0.76 -0.22,1.92 v 11.84 h -5.96 z"
         id="path8-2" />
      <path
         inkscape:connector-curvature="0"
         style="fill:#ffed00"
         d="m -4.52,148.08 -4,-12.32 -4.28,12.32 z m -0.16,-18 L 5.36,159 h -6.24 l -2.08,-6.24 H -14.4 l -2.16,6.24 h -5.92 l 10.44,-28.92 z M 8.88,142.4 V 142 q 0,-0.4 -0.02,-0.94 -0.02,-0.54 -0.04,-1.18 -0.02,-0.64 -0.06,-1.16 h 5.68 l 0.16,3.04 q 0.2,-0.36 0.64,-0.94 0.44,-0.58 1.2,-1.16 0.76,-0.58 1.92,-1 1.16,-0.42 2.8,-0.42 1.48,0 2.56,0.4 1.08,0.4 1.82,0.98 0.74,0.58 1.16,1.24 0.42,0.66 0.62,1.18 0.16,0.48 0.28,0.94 0.12,0.46 0.18,1.12 0.06,0.66 0.08,1.62 0.02,0.96 0.02,2.36 V 159 h -6.04 v -12.56 q 0,-0.64 -0.04,-1.18 -0.04,-0.54 -0.28,-1.02 -0.32,-0.68 -1.02,-1.2 -0.7,-0.52 -1.86,-0.52 -0.96,0 -1.78,0.42 -0.82,0.42 -1.3,1.14 -0.28,0.4 -0.5,1.16 -0.22,0.76 -0.22,1.92 V 159 H 8.88 Z m 27.44,-3.6 3.72,15.24 4.28,-15.24 h 6.52 l 4.24,15.24 3.96,-15.24 h 5.88 L 58,159 H 51.56 L 47.4,144.04 43.16,159 h -6.52 l -6.6,-20.2 z m 43.16,7.88 q 0,-0.36 -0.06,-1.1 -0.06,-0.74 -0.4,-1.5 -0.34,-0.76 -1.06,-1.34 -0.72,-0.58 -2,-0.58 -0.96,0 -1.66,0.38 -0.7,0.38 -1.16,1 -0.46,0.62 -0.7,1.44 -0.24,0.82 -0.28,1.7 z m -7.52,3.72 q 0,0.48 0.06,1.4 0.06,0.92 0.46,1.8 0.4,0.88 1.22,1.54 0.82,0.66 2.38,0.66 1.12,0 2.1,-0.56 0.98,-0.56 1.42,-2.24 H 85 q -0.04,0.36 -0.1,0.86 -0.06,0.5 -0.26,1.06 -0.2,0.56 -0.58,1.2 -0.38,0.64 -0.98,1.28 -1.12,1.16 -2.98,1.76 -1.86,0.6 -4.1,0.6 -0.64,0 -1.54,-0.08 -0.9,-0.08 -1.88,-0.36 -0.98,-0.28 -1.94,-0.76 -0.96,-0.48 -1.76,-1.32 -1.4,-1.44 -2,-3.44 -0.6,-2 -0.6,-4.44 0,-1.24 0.18,-2.56 0.18,-1.32 0.64,-2.58 0.46,-1.26 1.28,-2.4 0.82,-1.14 2.1,-2.02 1.16,-0.8 2.58,-1.24 1.42,-0.44 3.1,-0.44 1.08,0 2.24,0.24 1.16,0.24 2.24,0.8 1.08,0.56 2.04,1.5 0.96,0.94 1.64,2.34 0.52,1.04 0.78,2.08 0.26,1.04 0.36,2.02 0.1,0.98 0.1,1.82 0,0.84 -0.04,1.48 z m 21.6,2.76 q 0.04,0.48 0.22,0.98 0.18,0.5 0.56,0.88 0.38,0.38 1.02,0.64 0.64,0.26 1.56,0.26 1.6,0 2.36,-0.74 0.76,-0.74 0.76,-1.66 0,-0.68 -0.54,-1.24 -0.54,-0.56 -2.26,-1.04 l -3.68,-1 q -0.6,-0.16 -1.48,-0.48 -0.88,-0.32 -1.7,-0.94 -0.82,-0.62 -1.38,-1.62 -0.56,-1 -0.56,-2.56 0,-1.48 0.64,-2.64 0.64,-1.16 1.82,-1.98 1.18,-0.82 2.8,-1.26 1.62,-0.44 3.58,-0.44 1.56,0 2.94,0.36 1.38,0.36 2.4,1.1 1.02,0.74 1.64,1.86 0.62,1.12 0.7,2.64 h -5.4 q -0.08,-0.84 -0.4,-1.32 -0.32,-0.48 -0.76,-0.72 -0.44,-0.24 -0.9,-0.3 -0.46,-0.06 -0.82,-0.06 -1.2,0 -2,0.54 -0.8,0.54 -0.8,1.46 0,1.04 0.72,1.4 0.72,0.36 2.04,0.72 l 3.64,1 q 2.76,0.76 4.08,2.16 1.32,1.4 1.32,3.48 0,1.32 -0.56,2.56 -0.56,1.24 -1.72,2.22 -1.16,0.98 -2.9,1.58 -1.74,0.6 -4.1,0.6 -1.96,0 -3.74,-0.52 -1.78,-0.52 -3.18,-1.96 -1,-1.04 -1.22,-2.14 -0.22,-1.1 -0.26,-1.82 z m 28.16,-6.48 q 0,-0.36 -0.06,-1.1 -0.06,-0.74 -0.4,-1.5 -0.34,-0.76 -1.06,-1.34 -0.72,-0.58 -2,-0.58 -0.96,0 -1.66,0.38 -0.7,0.38 -1.16,1 -0.46,0.62 -0.7,1.44 -0.24,0.82 -0.28,1.7 z m -7.52,3.72 q 0,0.48 0.06,1.4 0.06,0.92 0.46,1.8 0.4,0.88 1.22,1.54 0.82,0.66 2.38,0.66 1.12,0 2.1,-0.56 0.98,-0.56 1.42,-2.24 h 5.4 q -0.04,0.36 -0.1,0.86 -0.06,0.5 -0.26,1.06 -0.2,0.56 -0.58,1.2 -0.38,0.64 -0.98,1.28 -1.12,1.16 -2.98,1.76 -1.86,0.6 -4.1,0.6 -0.64,0 -1.54,-0.08 -0.9,-0.08 -1.88,-0.36 -0.98,-0.28 -1.94,-0.76 -0.96,-0.48 -1.76,-1.32 -1.4,-1.44 -2,-3.44 -0.6,-2 -0.6,-4.44 0,-1.24 0.18,-2.56 0.18,-1.32 0.64,-2.58 0.46,-1.26 1.28,-2.4 0.82,-1.14 2.1,-2.02 1.16,-0.8 2.58,-1.24 1.42,-0.44 3.1,-0.44 1.08,0 2.24,0.24 1.16,0.24 2.24,0.8 1.08,0.56 2.04,1.5 0.96,0.94 1.64,2.34 0.52,1.04 0.78,2.08 0.26,1.04 0.36,2.02 0.1,0.98 0.1,1.82 0,0.84 -0.04,1.48 z m 17.56,-8 V 142 q 0,-0.4 -0.02,-0.94 -0.02,-0.54 -0.04,-1.18 -0.02,-0.64 -0.06,-1.16 h 5.68 l 0.16,3.04 q 0.2,-0.36 0.64,-0.94 0.44,-0.58 1.2,-1.16 0.76,-0.58 1.92,-1 1.16,-0.42 2.8,-0.42 1.48,0 2.56,0.4 1.08,0.4 1.82,0.98 0.74,0.58 1.16,1.24 0.42,0.66 0.62,1.18 0.16,0.48 0.28,0.94 0.12,0.46 0.18,1.12 0.06,0.66 0.08,1.62 0.02,0.96 0.02,2.36 V 159 h -6.04 v -12.56 q 0,-0.64 -0.04,-1.18 -0.04,-0.54 -0.28,-1.02 -0.32,-0.68 -1.02,-1.2 -0.7,-0.52 -1.86,-0.52 -0.96,0 -1.78,0.42 -0.82,0.42 -1.3,1.14 -0.28,0.4 -0.5,1.16 -0.22,0.76 -0.22,1.92 V 159 h -5.96 z m 24.52,-12.28 h 5.88 v 11.44 q 0.24,-0.36 0.68,-0.88 0.44,-0.52 1.12,-1 0.68,-0.48 1.66,-0.82 0.98,-0.34 2.38,-0.34 1.12,0 2.04,0.26 0.92,0.26 1.66,0.64 0.74,0.38 1.28,0.86 0.54,0.48 0.9,0.96 0.56,0.76 0.94,2.12 0.38,1.36 0.38,3.36 V 159 h -5.88 v -12.08 q 0,-0.44 -0.06,-1.18 -0.06,-0.74 -0.36,-1.46 -0.3,-0.72 -0.98,-1.24 -0.68,-0.52 -1.92,-0.52 -0.64,0 -1.3,0.2 -0.66,0.2 -1.22,0.68 -0.56,0.48 -0.92,1.26 -0.36,0.78 -0.36,1.98 l 0.04,12.36 h -5.96 z m 36.56,16.56 q 0,-0.36 -0.06,-1.1 -0.06,-0.74 -0.4,-1.5 -0.34,-0.76 -1.06,-1.34 -0.72,-0.58 -2,-0.58 -0.96,0 -1.66,0.38 -0.7,0.38 -1.16,1 -0.46,0.62 -0.7,1.44 -0.24,0.82 -0.28,1.7 z m -7.52,3.72 q 0,0.48 0.06,1.4 0.06,0.92 0.46,1.8 0.4,0.88 1.22,1.54 0.82,0.66 2.38,0.66 1.12,0 2.1,-0.56 0.98,-0.56 1.42,-2.24 h 5.4 q -0.04,0.36 -0.1,0.86 -0.06,0.5 -0.26,1.06 -0.2,0.56 -0.58,1.2 -0.38,0.64 -0.98,1.28 -1.12,1.16 -2.98,1.76 -1.86,0.6 -4.1,0.6 -0.64,0 -1.54,-0.08 -0.9,-0.08 -1.88,-0.36 -0.98,-0.28 -1.94,-0.76 -0.96,-0.48 -1.76,-1.32 -1.4,-1.44 -2,-3.44 -0.6,-2 -0.6,-4.44 0,-1.24 0.18,-2.56 0.18,-1.32 0.64,-2.58 0.46,-1.26 1.28,-2.4 0.82,-1.14 2.1,-2.02 1.16,-0.8 2.58,-1.24 1.42,-0.44 3.1,-0.44 1.08,0 2.24,0.24 1.16,0.24 2.24,0.8 1.08,0.56 2.04,1.5 0.96,0.94 1.64,2.34 0.52,1.04 0.78,2.08 0.26,1.04 0.36,2.02 0.1,0.98 0.1,1.82 0,0.84 -0.04,1.48 z m 17.48,-11.64 h 5.92 V 159 h -5.92 z m -0.2,-8.64 h 6.32 v 5.16 h -6.32 z m 23.2,28.6 q -1.44,0.4 -2.66,0.52 -1.22,0.12 -1.94,0.12 -2.24,0 -3.44,-0.62 -1.2,-0.62 -1.76,-1.48 -0.56,-0.86 -0.66,-1.78 -0.1,-0.92 -0.1,-1.56 v -11.08 h -3.88 v -3.92 h 3.88 v -3.96 l 5.88,-2.16 v 6.12 h 4.8 v 3.92 h -4.8 v 9.12 q 0,0.68 0.06,1.24 0.06,0.56 0.3,0.96 0.24,0.4 0.78,0.6 0.54,0.2 1.54,0.2 0.68,0 1.06,-0.02 0.38,-0.02 0.94,-0.1 z"
         id="path8" />
    </g>
  </g>
</svg>
