<?xml version="1.0" encoding="UTF-8"?>
<svg xmlns="http://www.w3.org/2000/svg" id="Logo" version="1.1" viewBox="0 0 359.52 50"><g id="Wortmarke"><path id="D" d="M37,22.27v5.4c0,.89.13,3.14-1.28,3.74-1.81.76-3.13.51-5,.54H24.54V18h6.24c1.83,0,3.14-.22,4.95.55C37.14,19.13,37,21.38,37,22.27Zm.7,17.65c3.78,0,7.91.32,10.62-1s3.21-4.78,3.21-6.58V17.67c0-1.81-.48-5.27-3.21-6.58s-6.83-1-10.62-1H10V39.93H37.71" style="fill-rule: evenodd" fill="#ffed00"/><path id="L" d="M59.76,39.93V10.05H74.31V32h19v8H59.76" fill="#ffed00"/><path id="R" d="M114.39,15.33h6.29c2,0,3.52-.16,4.88.47A2.48,2.48,0,0,1,127,18.59a2.58,2.58,0,0,1-1.43,2.82c-1.45.63-2.5.46-4.88.46h-6.29V15.33ZM99.84,39.93V10.05h27.49c3.17,0,6.76-.26,9.34.94,2.92,1.37,4.51,2.94,4.51,6.22l0,.8c0,2.56-1.07,3.89-3.21,5.26s-4.71,1.57-9.69,1.57h6a11,11,0,0,1,4.87,1,4.11,4.11,0,0,1,2.07,3.32V39.93H126.62V30.47c0-.91.07-2.39-1.22-2.8s-2.29-.31-4.54-.36h-6.47V39.93H99.84" style="fill-rule: evenodd" fill="#ffed00"/><path id="G" d="M169.14,21.87h20.77V33.29a6.33,6.33,0,0,1-4.49,6c-3,.84-6,.65-9.34.65H162.2c-4.6.06-8.52.4-10.9-1.25a6.51,6.51,0,0,1-2.93-5.39V16.69c0-2.31,1.27-4,3-5.37,2.06-1.7,6.34-1.27,10.87-1.27h13.88c5.47,0,9.08,0,11.1,1.45C190.26,13.7,190,18,190,18H176.05c-.44-2.16-1.67-2.72-4.49-2.72H167.1c-3.06,0-4.2,1-4.18,2.82V31.36c0,1.59.23,2.29,1.47,2.89,1,.49,2.63.41,4.53.41h3.53c3.34,0,3.63-1.82,3.63-3.81V27.31h-6.94V21.87" fill="#ffed00"/></g><rect id="Trenner" x="200" y="5" width="1.82" height="40" fill="#ffed00"/><path fill="#ffed00" d="M215.288,16.698q0,0.884,0.187,1.802t0.731,1.632q0.289,0.391,0.799,0.6885t1.428,0.2975q1.564,0,2.295-1.139q0.153-0.221,0.306-0.527t0.2635-0.731t0.187-0.9775t0.0765-1.2835q0-0.442-0.0595-1.037t-0.2465-1.156q-0.391-1.139-1.122-1.6575t-1.683-0.5185q-0.748,0-1.3175,0.2805t-0.9435,0.7565q-0.527,0.646-0.714,1.581t-0.187,1.989z M212.534,16.783q0-1.224,0.2975-2.4055t0.9945-2.108t1.819-1.496t2.788-0.5695q0.493,0,1.054,0.068t1.139,0.255t1.122,0.51t1.003,0.833q0.493,0.561,0.799,1.1815t0.476,1.2325t0.2295,1.1815t0.0595,1.0285q0,0.663-0.102,1.343t-0.2975,1.309t-0.4845,1.1815t-0.663,0.9775q-0.51,0.578-1.1135,0.918t-1.1985,0.527t-1.139,0.2465t-0.918,0.0595q-1.224,0-2.363-0.3995t-1.989-1.2835q-0.51-0.527-0.8075-1.156t-0.4505-1.2495t-0.204-1.19t-0.051-0.9945z M234.464,14.233q-0.017-0.238-0.0595-0.561t-0.2805-0.68q-0.187-0.306-0.4505-0.493t-0.5525-0.289t-0.561-0.136t-0.493-0.034q-1.122,0-1.819,0.4675t-1.0965,1.1645t-0.5355,1.513t-0.136,1.53q0,0.306,0.034,0.731t0.136,0.867t0.306,0.8925t0.544,0.8075q0.459,0.51,1.122,0.782t1.768,0.272q0.476,0,0.8075-0.0255t0.561-0.0595t0.3825-0.0765t0.255-0.0765l0-2.584l-2.38,0l0-2.04l5.015,0l0,6.137q-0.289,0.102-0.68,0.221t-0.9265,0.221t-1.2495,0.17t-1.632,0.068q-1.054,0-1.8615-0.119t-1.4365-0.34t-1.0965-0.5185t-0.8245-0.6545q-0.51-0.51-0.833-1.105t-0.5015-1.207t-0.238-1.1985t-0.0595-1.0795q0-1.632,0.4845-2.8815t1.343-2.091t2.04-1.275t2.5755-0.4335q1.19,0,2.3205,0.357t1.8615,1.19q0.306,0.357,0.476,0.7055t0.2635,0.68t0.119,0.629t0.0255,0.5525l-2.737,0z M244.256,10.459l8.228,0l0,2.006l-5.593,0l0,2.924l5.236,0l0,2.006l-5.236,0l0,3.315l5.78,0l0,2.04l-8.415,0l0-12.291z M259.539,22.631q-0.612,0.17-1.1305,0.221t-0.8245,0.051q-0.952,0-1.462-0.2635t-0.748-0.629t-0.2805-0.7565t-0.0425-0.663l0-4.709l-1.649,0l0-1.666l1.649,0l0-1.683l2.499-0.918l0,2.601l2.04,0l0,1.666l-2.04,0l0,3.876q0,0.289,0.0255,0.527t0.1275,0.408t0.3315,0.255t0.6545,0.085q0.289,0,0.4505-0.0085t0.3995-0.0425l0,1.649z M265.727,22.631q-0.612,0.17-1.1305,0.221t-0.8245,0.051q-0.952,0-1.462-0.2635t-0.748-0.629t-0.2805-0.7565t-0.0425-0.663l0-4.709l-1.649,0l0-1.666l1.649,0l0-1.683l2.499-0.918l0,2.601l2.04,0l0,1.666l-2.04,0l0,3.876q0,0.289,0.0255,0.527t0.1275,0.408t0.3315,0.255t0.6545,0.085q0.289,0,0.4505-0.0085t0.3995-0.0425l0,1.649z M267.291,10.459l2.516,0l0,12.291l-2.516,0l0-12.291z M272.017,14.148l2.516,0l0,8.602l-2.516,0l0-8.602z M271.932,10.476l2.686,0l0,2.193l-2.686,0l0-2.193z M276.777,15.695l0-0.17q0-0.17-0.0085-0.3995t-0.017-0.5015t-0.0255-0.493l2.414,0l0.068,1.292q0.085-0.153,0.272-0.3995t0.51-0.493t0.816-0.425t1.19-0.1785q0.629,0,1.088,0.17t0.7735,0.4165t0.493,0.527t0.2635,0.5015q0.068,0.204,0.119,0.3995t0.0765,0.476t0.034,0.6885t0.0085,1.003l0,4.641l-2.567,0l0-5.338q0-0.272-0.017-0.5015t-0.119-0.4335q-0.136-0.289-0.4335-0.51t-0.7905-0.221q-0.408,0-0.7565,0.1785t-0.5525,0.4845q-0.119,0.17-0.2125,0.493t-0.0935,0.816l0,5.032l-2.533,0l0-7.055z M289.272,18.364q0,0.153,0.0255,0.5695t0.187,0.8415t0.5015,0.7565t0.969,0.3315q0.663,0,1.02-0.3315t0.527-0.7565t0.1955-0.8245t0.0255-0.5355q0-0.357-0.051-0.816t-0.2295-0.8585t-0.5185-0.6715t-0.918-0.272q-0.714,0-1.224,0.595t-0.51,1.972z M295.273,14.199q-0.051,0.51-0.085,0.9945t-0.034,1.1305l0,6.341q0,1.19-0.4335,1.8785t-1.088,1.0455t-1.4025,0.4505t-1.36,0.0935q-0.459,0-1.088-0.068t-1.207-0.34t-1.003-0.8245t-0.476-1.5215l2.414,0q0.017,0.102,0.0595,0.2975t0.1955,0.391t0.442,0.3485t0.799,0.153q0.561,0,0.9945-0.272t0.5695-0.85q0.034-0.153,0.0595-0.3145t0.034-0.374t0.017-0.5355t0.0085-0.816q-0.306,0.391-0.612,0.629t-0.612,0.357t-0.5865,0.153t-0.5015,0.034q-0.918,0-1.6065-0.3655t-1.1305-0.9605t-0.663-1.3515t-0.221-1.5385q0-0.816,0.2295-1.581t0.6885-1.36t1.1475-0.952t1.6065-0.357q0.578,0,0.9945,0.136t0.697,0.3315t0.442,0.408t0.2635,0.3485l0.085-1.139l2.363,0z M302.396,17.514q0-0.153-0.0255-0.4675t-0.17-0.6375t-0.4505-0.5695t-0.85-0.2465q-0.408,0-0.7055,0.1615t-0.493,0.425t-0.2975,0.612t-0.119,0.7225l3.111,0z M299.2,19.095q0,0.204,0.0255,0.595t0.1955,0.765t0.5185,0.6545t1.0115,0.2805q0.476,0,0.8925-0.238t0.6035-0.952l2.295,0q-0.017,0.153-0.0425,0.3655t-0.1105,0.4505t-0.2465,0.51t-0.4165,0.544q-0.476,0.493-1.2665,0.748t-1.7425,0.255q-0.272,0-0.6545-0.034t-0.799-0.153t-0.8245-0.323t-0.748-0.561q-0.595-0.612-0.85-1.462t-0.255-1.887q0-0.527,0.0765-1.088t0.272-1.0965t0.544-1.02t0.8925-0.8585q0.493-0.34,1.0965-0.527t1.3175-0.187q0.459,0,0.952,0.102t0.952,0.34t0.867,0.6375t0.697,0.9945q0.221,0.442,0.3315,0.884t0.153,0.8585t0.0425,0.7735t-0.017,0.629l-5.763,0z M306.663,15.695l0-0.17q0-0.17-0.0085-0.3995t-0.017-0.5015t-0.0255-0.493l2.414,0l0.068,1.292q0.085-0.153,0.272-0.3995t0.51-0.493t0.816-0.425t1.19-0.1785q0.629,0,1.088,0.17t0.7735,0.4165t0.493,0.527t0.2635,0.5015q0.068,0.204,0.119,0.3995t0.0765,0.476t0.034,0.6885t0.0085,1.003l0,4.641l-2.567,0l0-5.338q0-0.272-0.017-0.5015t-0.119-0.4335q-0.136-0.289-0.4335-0.51t-0.7905-0.221q-0.408,0-0.7565,0.1785t-0.5525,0.4845q-0.119,0.17-0.2125,0.493t-0.0935,0.816l0,5.032l-2.533,0l0-7.055z M326.961,17.514q0-0.153-0.0255-0.4675t-0.17-0.6375t-0.4505-0.5695t-0.85-0.2465q-0.408,0-0.7055,0.1615t-0.493,0.425t-0.2975,0.612t-0.119,0.7225l3.111,0z M323.765,19.095q0,0.204,0.0255,0.595t0.1955,0.765t0.5185,0.6545t1.0115,0.2805q0.476,0,0.8925-0.238t0.6035-0.952l2.295,0q-0.017,0.153-0.0425,0.3655t-0.1105,0.4505t-0.2465,0.51t-0.4165,0.544q-0.476,0.493-1.2665,0.748t-1.7425,0.255q-0.272,0-0.6545-0.034t-0.799-0.153t-0.8245-0.323t-0.748-0.561q-0.595-0.612-0.85-1.462t-0.255-1.887q0-0.527,0.0765-1.088t0.272-1.0965t0.544-1.02t0.8925-0.8585q0.493-0.34,1.0965-0.527t1.3175-0.187q0.459,0,0.952,0.102t0.952,0.34t0.867,0.6375t0.697,0.9945q0.221,0.442,0.3315,0.884t0.153,0.8585t0.0425,0.7735t-0.017,0.629l-5.763,0z M331.347,20.489l2.159,0l0,2.261l-2.159,0l0-2.261z M337.892,10.51l3.213,9.639l3.23-9.639l2.601,0l-4.522,12.24l-2.873,0l-4.522-12.24l2.873,0z M346.052,20.489l2.159,0l0,2.261l-2.159,0l0-2.261z M219.538,34.909l-1.7-5.236l-1.819,5.236l3.519,0z M219.47,27.259l4.267,12.291l-2.652,0l-0.884-2.652l-4.862,0l-0.918,2.652l-2.516,0l4.437-12.291l3.128,0z M225.233,32.495l0-0.17q0-0.17-0.0085-0.3995t-0.017-0.5015t-0.0255-0.493l2.414,0l0.068,1.292q0.085-0.153,0.272-0.3995t0.51-0.493t0.816-0.425t1.19-0.1785q0.629,0,1.088,0.17t0.7735,0.4165t0.493,0.527t0.2635,0.5015q0.068,0.204,0.119,0.3995t0.0765,0.476t0.034,0.6885t0.0085,1.003l0,4.641l-2.567,0l0-5.338q0-0.272-0.017-0.5015t-0.119-0.4335q-0.136-0.289-0.4335-0.51t-0.7905-0.221q-0.408,0-0.7565,0.1785t-0.5525,0.4845q-0.119,0.17-0.2125,0.493t-0.0935,0.816l0,5.032l-2.533,0l0-7.055z M236.895,30.965l1.581,6.477l1.819-6.477l2.771,0l1.802,6.477l1.683-6.477l2.499,0l-2.941,8.585l-2.737,0l-1.768-6.358l-1.802,6.358l-2.771,0l-2.805-8.585l2.669,0z M255.238,34.314q0-0.153-0.0255-0.4675t-0.17-0.6375t-0.4505-0.5695t-0.85-0.2465q-0.408,0-0.7055,0.1615t-0.493,0.425t-0.2975,0.612t-0.119,0.7225l3.111,0z M252.042,35.895q0,0.204,0.0255,0.595t0.1955,0.765t0.5185,0.6545t1.0115,0.2805q0.476,0,0.8925-0.238t0.6035-0.952l2.295,0q-0.017,0.153-0.0425,0.3655t-0.1105,0.4505t-0.2465,0.51t-0.4165,0.544q-0.476,0.493-1.2665,0.748t-1.7425,0.255q-0.272,0-0.6545-0.034t-0.799-0.153t-0.8245-0.323t-0.748-0.561q-0.595-0.612-0.85-1.462t-0.255-1.887q0-0.527,0.0765-1.088t0.272-1.0965t0.544-1.02t0.8925-0.8585q0.493-0.34,1.0965-0.527t1.3175-0.187q0.459,0,0.952,0.102t0.952,0.34t0.867,0.6375t0.697,0.9945q0.221,0.442,0.3315,0.884t0.153,0.8585t0.0425,0.7735t-0.017,0.629l-5.763,0z M261.222,37.068q0.017,0.204,0.0935,0.4165t0.238,0.374t0.4335,0.272t0.663,0.1105q0.68,0,1.003-0.3145t0.323-0.7055q0-0.289-0.2295-0.527t-0.9605-0.442l-1.564-0.425q-0.255-0.068-0.629-0.204t-0.7225-0.3995t-0.5865-0.6885t-0.238-1.088q0-0.629,0.272-1.122t0.7735-0.8415t1.19-0.5355t1.5215-0.187q0.663,0,1.2495,0.153t1.02,0.4675t0.697,0.7905t0.2975,1.122l-2.295,0q-0.034-0.357-0.17-0.561t-0.323-0.306t-0.3825-0.1275t-0.3485-0.0255q-0.51,0-0.85,0.2295t-0.34,0.6205q0,0.442,0.306,0.595t0.867,0.306l1.547,0.425q1.173,0.323,1.734,0.918t0.561,1.479q0,0.561-0.238,1.088t-0.731,0.9435t-1.2325,0.6715t-1.7425,0.255q-0.833,0-1.5895-0.221t-1.3515-0.833q-0.425-0.442-0.5185-0.9095t-0.1105-0.7735l2.363,0z M273.19,34.314q0-0.153-0.0255-0.4675t-0.17-0.6375t-0.4505-0.5695t-0.85-0.2465q-0.408,0-0.7055,0.1615t-0.493,0.425t-0.2975,0.612t-0.119,0.7225l3.111,0z M269.994,35.895q0,0.204,0.0255,0.595t0.1955,0.765t0.5185,0.6545t1.0115,0.2805q0.476,0,0.8925-0.238t0.6035-0.952l2.295,0q-0.017,0.153-0.0425,0.3655t-0.1105,0.4505t-0.2465,0.51t-0.4165,0.544q-0.476,0.493-1.2665,0.748t-1.7425,0.255q-0.272,0-0.6545-0.034t-0.799-0.153t-0.8245-0.323t-0.748-0.561q-0.595-0.612-0.85-1.462t-0.255-1.887q0-0.527,0.0765-1.088t0.272-1.0965t0.544-1.02t0.8925-0.8585q0.493-0.34,1.0965-0.527t1.3175-0.187q0.459,0,0.952,0.102t0.952,0.34t0.867,0.6375t0.697,0.9945q0.221,0.442,0.3315,0.884t0.153,0.8585t0.0425,0.7735t-0.017,0.629l-5.763,0z M277.457,32.495l0-0.17q0-0.17-0.0085-0.3995t-0.017-0.5015t-0.0255-0.493l2.414,0l0.068,1.292q0.085-0.153,0.272-0.3995t0.51-0.493t0.816-0.425t1.19-0.1785q0.629,0,1.088,0.17t0.7735,0.4165t0.493,0.527t0.2635,0.5015q0.068,0.204,0.119,0.3995t0.0765,0.476t0.034,0.6885t0.0085,1.003l0,4.641l-2.567,0l0-5.338q0-0.272-0.017-0.5015t-0.119-0.4335q-0.136-0.289-0.4335-0.51t-0.7905-0.221q-0.408,0-0.7565,0.1785t-0.5525,0.4845q-0.119,0.17-0.2125,0.493t-0.0935,0.816l0,5.032l-2.533,0l0-7.055z M287.878,27.276l2.499,0l0,4.862q0.102-0.153,0.289-0.374t0.476-0.425t0.7055-0.3485t1.0115-0.1445q0.476,0,0.867,0.1105t0.7055,0.272t0.544,0.3655t0.3825,0.408q0.238,0.323,0.3995,0.901t0.1615,1.428l0,5.219l-2.499,0l0-5.134q0-0.187-0.0255-0.5015t-0.153-0.6205t-0.4165-0.527t-0.816-0.221q-0.272,0-0.5525,0.085t-0.5185,0.289t-0.391,0.5355t-0.153,0.8415l0.017,5.253l-2.533,0l0-12.274z M303.416,34.314q0-0.153-0.0255-0.4675t-0.17-0.6375t-0.4505-0.5695t-0.85-0.2465q-0.408,0-0.7055,0.1615t-0.493,0.425t-0.2975,0.612t-0.119,0.7225l3.111,0z M300.22,35.895q0,0.204,0.0255,0.595t0.1955,0.765t0.5185,0.6545t1.0115,0.2805q0.476,0,0.8925-0.238t0.6035-0.952l2.295,0q-0.017,0.153-0.0425,0.3655t-0.1105,0.4505t-0.2465,0.51t-0.4165,0.544q-0.476,0.493-1.2665,0.748t-1.7425,0.255q-0.272,0-0.6545-0.034t-0.799-0.153t-0.8245-0.323t-0.748-0.561q-0.595-0.612-0.85-1.462t-0.255-1.887q0-0.527,0.0765-1.088t0.272-1.0965t0.544-1.02t0.8925-0.8585q0.493-0.34,1.0965-0.527t1.3175-0.187q0.459,0,0.952,0.102t0.952,0.34t0.867,0.6375t0.697,0.9945q0.221,0.442,0.3315,0.884t0.153,0.8585t0.0425,0.7735t-0.017,0.629l-5.763,0z M307.649,30.948l2.516,0l0,8.602l-2.516,0l0-8.602z M307.564,27.276l2.686,0l0,2.193l-2.686,0l0-2.193z M317.424,39.431q-0.612,0.17-1.1305,0.221t-0.8245,0.051q-0.952,0-1.462-0.2635t-0.748-0.629t-0.2805-0.7565t-0.0425-0.663l0-4.709l-1.649,0l0-1.666l1.649,0l0-1.683l2.499-0.918l0,2.601l2.04,0l0,1.666l-2.04,0l0,3.876q0,0.289,0.0255,0.527t0.1275,0.408t0.3315,0.255t0.6545,0.085q0.289,0,0.4505-0.0085t0.3995-0.0425l0,1.649z"/></svg>